<mxfile host="app.diagrams.net" modified="2023-06-07T21:46:17.127Z" agent="Mozilla/5.0 (Windows NT 10.0; Win64; x64) AppleWebKit/537.36 (KHTML, like Gecko) Chrome/112.0.0.0 Safari/537.36 OPR/98.0.0.0 (Edition std-1)" version="21.3.7" etag="naFyD7Nvt7gejfNplZaL" type="device">
  <diagram name="PÃ¡gina-1" id="68uL73ih5Qv2NwUpenhS">
    <mxGraphModel dx="2466" dy="2061" grid="1" gridSize="10" guides="1" tooltips="1" connect="1" arrows="1" fold="1" page="1" pageScale="1" pageWidth="827" pageHeight="1169" math="0" shadow="0">
      <root>
        <mxCell id="0" />
        <mxCell id="1" parent="0" />
        <mxCell id="9f2d0XfLrXAN-zf3y8o4-28" style="edgeStyle=orthogonalEdgeStyle;rounded=0;orthogonalLoop=1;jettySize=auto;html=1;entryX=1;entryY=0.5;entryDx=0;entryDy=0;" parent="1" source="9f2d0XfLrXAN-zf3y8o4-1" target="9f2d0XfLrXAN-zf3y8o4-23" edge="1">
          <mxGeometry relative="1" as="geometry" />
        </mxCell>
        <mxCell id="9f2d0XfLrXAN-zf3y8o4-29" style="edgeStyle=orthogonalEdgeStyle;rounded=0;orthogonalLoop=1;jettySize=auto;html=1;entryX=0;entryY=0.5;entryDx=0;entryDy=0;" parent="1" source="9f2d0XfLrXAN-zf3y8o4-1" target="9f2d0XfLrXAN-zf3y8o4-24" edge="1">
          <mxGeometry relative="1" as="geometry" />
        </mxCell>
        <mxCell id="9f2d0XfLrXAN-zf3y8o4-30" style="edgeStyle=orthogonalEdgeStyle;rounded=0;orthogonalLoop=1;jettySize=auto;html=1;entryX=1;entryY=0.5;entryDx=0;entryDy=0;" parent="1" source="9f2d0XfLrXAN-zf3y8o4-1" target="9f2d0XfLrXAN-zf3y8o4-25" edge="1">
          <mxGeometry relative="1" as="geometry" />
        </mxCell>
        <mxCell id="9f2d0XfLrXAN-zf3y8o4-31" style="edgeStyle=orthogonalEdgeStyle;rounded=0;orthogonalLoop=1;jettySize=auto;html=1;entryX=0;entryY=0.5;entryDx=0;entryDy=0;" parent="1" source="9f2d0XfLrXAN-zf3y8o4-1" target="9f2d0XfLrXAN-zf3y8o4-26" edge="1">
          <mxGeometry relative="1" as="geometry" />
        </mxCell>
        <mxCell id="9f2d0XfLrXAN-zf3y8o4-44" style="edgeStyle=orthogonalEdgeStyle;rounded=0;orthogonalLoop=1;jettySize=auto;html=1;entryX=0;entryY=0.5;entryDx=0;entryDy=0;" parent="1" source="9f2d0XfLrXAN-zf3y8o4-1" target="9f2d0XfLrXAN-zf3y8o4-42" edge="1">
          <mxGeometry relative="1" as="geometry" />
        </mxCell>
        <mxCell id="9f2d0XfLrXAN-zf3y8o4-46" style="edgeStyle=orthogonalEdgeStyle;rounded=0;orthogonalLoop=1;jettySize=auto;html=1;entryX=1;entryY=0.5;entryDx=0;entryDy=0;" parent="1" source="9f2d0XfLrXAN-zf3y8o4-1" target="9f2d0XfLrXAN-zf3y8o4-45" edge="1">
          <mxGeometry relative="1" as="geometry" />
        </mxCell>
        <mxCell id="4" style="edgeStyle=none;html=1;entryX=0.5;entryY=1;entryDx=0;entryDy=0;" parent="1" source="9f2d0XfLrXAN-zf3y8o4-1" target="3" edge="1">
          <mxGeometry relative="1" as="geometry" />
        </mxCell>
        <mxCell id="9f2d0XfLrXAN-zf3y8o4-1" value="Usuarios" style="whiteSpace=wrap;html=1;aspect=fixed;" parent="1" vertex="1">
          <mxGeometry x="120" y="40" width="80" height="80" as="geometry" />
        </mxCell>
        <mxCell id="9f2d0XfLrXAN-zf3y8o4-53" style="edgeStyle=orthogonalEdgeStyle;rounded=0;orthogonalLoop=1;jettySize=auto;html=1;entryX=1;entryY=0.5;entryDx=0;entryDy=0;" parent="1" source="9f2d0XfLrXAN-zf3y8o4-2" target="9f2d0XfLrXAN-zf3y8o4-52" edge="1">
          <mxGeometry relative="1" as="geometry" />
        </mxCell>
        <mxCell id="9f2d0XfLrXAN-zf3y8o4-60" style="edgeStyle=orthogonalEdgeStyle;rounded=0;orthogonalLoop=1;jettySize=auto;html=1;entryX=0;entryY=0.5;entryDx=0;entryDy=0;" parent="1" source="9f2d0XfLrXAN-zf3y8o4-2" target="9f2d0XfLrXAN-zf3y8o4-49" edge="1">
          <mxGeometry relative="1" as="geometry" />
        </mxCell>
        <mxCell id="9f2d0XfLrXAN-zf3y8o4-61" style="edgeStyle=orthogonalEdgeStyle;rounded=0;orthogonalLoop=1;jettySize=auto;html=1;entryX=1;entryY=0.5;entryDx=0;entryDy=0;" parent="1" source="9f2d0XfLrXAN-zf3y8o4-2" target="9f2d0XfLrXAN-zf3y8o4-48" edge="1">
          <mxGeometry relative="1" as="geometry" />
        </mxCell>
        <mxCell id="9f2d0XfLrXAN-zf3y8o4-62" style="edgeStyle=orthogonalEdgeStyle;rounded=0;orthogonalLoop=1;jettySize=auto;html=1;entryX=1;entryY=0.5;entryDx=0;entryDy=0;" parent="1" source="9f2d0XfLrXAN-zf3y8o4-2" target="9f2d0XfLrXAN-zf3y8o4-50" edge="1">
          <mxGeometry relative="1" as="geometry" />
        </mxCell>
        <mxCell id="9f2d0XfLrXAN-zf3y8o4-2" value="Cuentas" style="whiteSpace=wrap;html=1;aspect=fixed;" parent="1" vertex="1">
          <mxGeometry x="-120" y="40" width="80" height="80" as="geometry" />
        </mxCell>
        <mxCell id="9f2d0XfLrXAN-zf3y8o4-37" style="edgeStyle=orthogonalEdgeStyle;rounded=0;orthogonalLoop=1;jettySize=auto;html=1;entryX=1;entryY=0.5;entryDx=0;entryDy=0;" parent="1" source="9f2d0XfLrXAN-zf3y8o4-3" target="9f2d0XfLrXAN-zf3y8o4-32" edge="1">
          <mxGeometry relative="1" as="geometry" />
        </mxCell>
        <mxCell id="9f2d0XfLrXAN-zf3y8o4-38" style="edgeStyle=orthogonalEdgeStyle;rounded=0;orthogonalLoop=1;jettySize=auto;html=1;entryX=0;entryY=0.5;entryDx=0;entryDy=0;" parent="1" source="9f2d0XfLrXAN-zf3y8o4-3" target="9f2d0XfLrXAN-zf3y8o4-33" edge="1">
          <mxGeometry relative="1" as="geometry" />
        </mxCell>
        <mxCell id="9f2d0XfLrXAN-zf3y8o4-39" style="edgeStyle=orthogonalEdgeStyle;rounded=0;orthogonalLoop=1;jettySize=auto;html=1;entryX=0;entryY=0.5;entryDx=0;entryDy=0;" parent="1" source="9f2d0XfLrXAN-zf3y8o4-3" target="9f2d0XfLrXAN-zf3y8o4-35" edge="1">
          <mxGeometry relative="1" as="geometry" />
        </mxCell>
        <mxCell id="9f2d0XfLrXAN-zf3y8o4-40" style="edgeStyle=orthogonalEdgeStyle;rounded=0;orthogonalLoop=1;jettySize=auto;html=1;entryX=1;entryY=0.5;entryDx=0;entryDy=0;" parent="1" source="9f2d0XfLrXAN-zf3y8o4-3" target="9f2d0XfLrXAN-zf3y8o4-36" edge="1">
          <mxGeometry relative="1" as="geometry" />
        </mxCell>
        <mxCell id="9f2d0XfLrXAN-zf3y8o4-41" style="edgeStyle=orthogonalEdgeStyle;rounded=0;orthogonalLoop=1;jettySize=auto;html=1;entryX=1;entryY=0.5;entryDx=0;entryDy=0;" parent="1" source="9f2d0XfLrXAN-zf3y8o4-3" target="9f2d0XfLrXAN-zf3y8o4-34" edge="1">
          <mxGeometry relative="1" as="geometry" />
        </mxCell>
        <mxCell id="9f2d0XfLrXAN-zf3y8o4-3" value="Sesiones" style="whiteSpace=wrap;html=1;aspect=fixed;" parent="1" vertex="1">
          <mxGeometry x="360" y="40" width="80" height="80" as="geometry" />
        </mxCell>
        <mxCell id="9f2d0XfLrXAN-zf3y8o4-11" style="edgeStyle=orthogonalEdgeStyle;rounded=0;orthogonalLoop=1;jettySize=auto;html=1;entryX=1;entryY=0.5;entryDx=0;entryDy=0;" parent="1" source="9f2d0XfLrXAN-zf3y8o4-4" target="9f2d0XfLrXAN-zf3y8o4-10" edge="1">
          <mxGeometry relative="1" as="geometry" />
        </mxCell>
        <mxCell id="9f2d0XfLrXAN-zf3y8o4-17" style="edgeStyle=orthogonalEdgeStyle;rounded=0;orthogonalLoop=1;jettySize=auto;html=1;entryX=0;entryY=0.5;entryDx=0;entryDy=0;" parent="1" source="9f2d0XfLrXAN-zf3y8o4-4" target="9f2d0XfLrXAN-zf3y8o4-12" edge="1">
          <mxGeometry relative="1" as="geometry" />
        </mxCell>
        <mxCell id="9f2d0XfLrXAN-zf3y8o4-18" style="edgeStyle=orthogonalEdgeStyle;rounded=0;orthogonalLoop=1;jettySize=auto;html=1;entryX=1;entryY=0.5;entryDx=0;entryDy=0;" parent="1" source="9f2d0XfLrXAN-zf3y8o4-4" target="9f2d0XfLrXAN-zf3y8o4-13" edge="1">
          <mxGeometry relative="1" as="geometry" />
        </mxCell>
        <mxCell id="9f2d0XfLrXAN-zf3y8o4-19" style="edgeStyle=orthogonalEdgeStyle;rounded=0;orthogonalLoop=1;jettySize=auto;html=1;entryX=0;entryY=0.5;entryDx=0;entryDy=0;" parent="1" source="9f2d0XfLrXAN-zf3y8o4-4" target="9f2d0XfLrXAN-zf3y8o4-14" edge="1">
          <mxGeometry relative="1" as="geometry" />
        </mxCell>
        <mxCell id="9f2d0XfLrXAN-zf3y8o4-20" style="edgeStyle=orthogonalEdgeStyle;rounded=0;orthogonalLoop=1;jettySize=auto;html=1;entryX=1;entryY=0.5;entryDx=0;entryDy=0;" parent="1" source="9f2d0XfLrXAN-zf3y8o4-4" target="9f2d0XfLrXAN-zf3y8o4-15" edge="1">
          <mxGeometry relative="1" as="geometry" />
        </mxCell>
        <mxCell id="9f2d0XfLrXAN-zf3y8o4-21" style="edgeStyle=orthogonalEdgeStyle;rounded=0;orthogonalLoop=1;jettySize=auto;html=1;entryX=0;entryY=0.5;entryDx=0;entryDy=0;" parent="1" source="9f2d0XfLrXAN-zf3y8o4-4" target="9f2d0XfLrXAN-zf3y8o4-16" edge="1">
          <mxGeometry relative="1" as="geometry" />
        </mxCell>
        <mxCell id="9f2d0XfLrXAN-zf3y8o4-4" value="Contacto" style="whiteSpace=wrap;html=1;aspect=fixed;" parent="1" vertex="1">
          <mxGeometry x="640" width="80" height="80" as="geometry" />
        </mxCell>
        <mxCell id="13" style="edgeStyle=none;html=1;entryX=1;entryY=0.5;entryDx=0;entryDy=0;" parent="1" source="9f2d0XfLrXAN-zf3y8o4-5" target="9" edge="1">
          <mxGeometry relative="1" as="geometry" />
        </mxCell>
        <mxCell id="8t4h2dZMNEIqTEX9CSGe-29" style="edgeStyle=orthogonalEdgeStyle;rounded=0;orthogonalLoop=1;jettySize=auto;html=1;entryX=0;entryY=0.5;entryDx=0;entryDy=0;" edge="1" parent="1" source="9f2d0XfLrXAN-zf3y8o4-5" target="8t4h2dZMNEIqTEX9CSGe-28">
          <mxGeometry relative="1" as="geometry" />
        </mxCell>
        <mxCell id="8t4h2dZMNEIqTEX9CSGe-30" style="edgeStyle=orthogonalEdgeStyle;rounded=0;orthogonalLoop=1;jettySize=auto;html=1;entryX=1;entryY=0.5;entryDx=0;entryDy=0;" edge="1" parent="1" source="9f2d0XfLrXAN-zf3y8o4-5" target="7">
          <mxGeometry relative="1" as="geometry" />
        </mxCell>
        <mxCell id="8t4h2dZMNEIqTEX9CSGe-32" style="edgeStyle=orthogonalEdgeStyle;rounded=0;orthogonalLoop=1;jettySize=auto;html=1;entryX=0;entryY=0.5;entryDx=0;entryDy=0;" edge="1" parent="1" source="9f2d0XfLrXAN-zf3y8o4-5" target="10">
          <mxGeometry relative="1" as="geometry" />
        </mxCell>
        <mxCell id="8t4h2dZMNEIqTEX9CSGe-34" style="edgeStyle=orthogonalEdgeStyle;rounded=0;orthogonalLoop=1;jettySize=auto;html=1;entryX=0;entryY=0.5;entryDx=0;entryDy=0;" edge="1" parent="1" source="9f2d0XfLrXAN-zf3y8o4-5" target="8t4h2dZMNEIqTEX9CSGe-26">
          <mxGeometry relative="1" as="geometry" />
        </mxCell>
        <mxCell id="8t4h2dZMNEIqTEX9CSGe-35" style="edgeStyle=orthogonalEdgeStyle;rounded=0;orthogonalLoop=1;jettySize=auto;html=1;entryX=0;entryY=0.5;entryDx=0;entryDy=0;" edge="1" parent="1" source="9f2d0XfLrXAN-zf3y8o4-5" target="8t4h2dZMNEIqTEX9CSGe-24">
          <mxGeometry relative="1" as="geometry" />
        </mxCell>
        <mxCell id="8t4h2dZMNEIqTEX9CSGe-39" style="edgeStyle=orthogonalEdgeStyle;rounded=0;orthogonalLoop=1;jettySize=auto;html=1;entryX=0;entryY=0.5;entryDx=0;entryDy=0;" edge="1" parent="1" source="9f2d0XfLrXAN-zf3y8o4-5" target="8t4h2dZMNEIqTEX9CSGe-36">
          <mxGeometry relative="1" as="geometry" />
        </mxCell>
        <mxCell id="8t4h2dZMNEIqTEX9CSGe-40" style="edgeStyle=orthogonalEdgeStyle;rounded=0;orthogonalLoop=1;jettySize=auto;html=1;entryX=0;entryY=0.5;entryDx=0;entryDy=0;" edge="1" parent="1" source="9f2d0XfLrXAN-zf3y8o4-5" target="8t4h2dZMNEIqTEX9CSGe-37">
          <mxGeometry relative="1" as="geometry" />
        </mxCell>
        <mxCell id="9f2d0XfLrXAN-zf3y8o4-5" value="Coaching Sesiones" style="whiteSpace=wrap;html=1;aspect=fixed;" parent="1" vertex="1">
          <mxGeometry x="120" y="-160" width="80" height="80" as="geometry" />
        </mxCell>
        <mxCell id="8t4h2dZMNEIqTEX9CSGe-56" style="edgeStyle=orthogonalEdgeStyle;rounded=0;orthogonalLoop=1;jettySize=auto;html=1;entryX=1;entryY=0.5;entryDx=0;entryDy=0;" edge="1" parent="1" source="9f2d0XfLrXAN-zf3y8o4-7" target="8t4h2dZMNEIqTEX9CSGe-51">
          <mxGeometry relative="1" as="geometry" />
        </mxCell>
        <mxCell id="8t4h2dZMNEIqTEX9CSGe-57" style="edgeStyle=orthogonalEdgeStyle;rounded=0;orthogonalLoop=1;jettySize=auto;html=1;entryX=0;entryY=0.5;entryDx=0;entryDy=0;" edge="1" parent="1" source="9f2d0XfLrXAN-zf3y8o4-7" target="8t4h2dZMNEIqTEX9CSGe-54">
          <mxGeometry relative="1" as="geometry" />
        </mxCell>
        <mxCell id="8t4h2dZMNEIqTEX9CSGe-58" style="edgeStyle=orthogonalEdgeStyle;rounded=0;orthogonalLoop=1;jettySize=auto;html=1;entryX=1;entryY=0.5;entryDx=0;entryDy=0;" edge="1" parent="1" source="9f2d0XfLrXAN-zf3y8o4-7" target="8t4h2dZMNEIqTEX9CSGe-53">
          <mxGeometry relative="1" as="geometry" />
        </mxCell>
        <mxCell id="8t4h2dZMNEIqTEX9CSGe-59" style="edgeStyle=orthogonalEdgeStyle;rounded=0;orthogonalLoop=1;jettySize=auto;html=1;entryX=0;entryY=0.5;entryDx=0;entryDy=0;" edge="1" parent="1" source="9f2d0XfLrXAN-zf3y8o4-7" target="8t4h2dZMNEIqTEX9CSGe-52">
          <mxGeometry relative="1" as="geometry" />
        </mxCell>
        <mxCell id="9f2d0XfLrXAN-zf3y8o4-7" value="Puntuacion" style="whiteSpace=wrap;html=1;aspect=fixed;" parent="1" vertex="1">
          <mxGeometry x="400" y="-160" width="80" height="80" as="geometry" />
        </mxCell>
        <mxCell id="8t4h2dZMNEIqTEX9CSGe-22" style="edgeStyle=orthogonalEdgeStyle;rounded=0;orthogonalLoop=1;jettySize=auto;html=1;entryX=1;entryY=0.5;entryDx=0;entryDy=0;" edge="1" parent="1" source="9f2d0XfLrXAN-zf3y8o4-8" target="8t4h2dZMNEIqTEX9CSGe-20">
          <mxGeometry relative="1" as="geometry" />
        </mxCell>
        <mxCell id="8t4h2dZMNEIqTEX9CSGe-23" style="edgeStyle=orthogonalEdgeStyle;rounded=0;orthogonalLoop=1;jettySize=auto;html=1;entryX=0;entryY=0.5;entryDx=0;entryDy=0;" edge="1" parent="1" source="9f2d0XfLrXAN-zf3y8o4-8" target="8t4h2dZMNEIqTEX9CSGe-21">
          <mxGeometry relative="1" as="geometry" />
        </mxCell>
        <mxCell id="9f2d0XfLrXAN-zf3y8o4-8" value="Bloc de Notas" style="whiteSpace=wrap;html=1;aspect=fixed;" parent="1" vertex="1">
          <mxGeometry x="-120" y="-160" width="80" height="80" as="geometry" />
        </mxCell>
        <mxCell id="8t4h2dZMNEIqTEX9CSGe-45" style="edgeStyle=orthogonalEdgeStyle;rounded=0;orthogonalLoop=1;jettySize=auto;html=1;entryX=0;entryY=0.5;entryDx=0;entryDy=0;" edge="1" parent="1" source="9f2d0XfLrXAN-zf3y8o4-9" target="8t4h2dZMNEIqTEX9CSGe-44">
          <mxGeometry relative="1" as="geometry" />
        </mxCell>
        <mxCell id="8t4h2dZMNEIqTEX9CSGe-46" style="edgeStyle=orthogonalEdgeStyle;rounded=0;orthogonalLoop=1;jettySize=auto;html=1;entryX=1;entryY=0.5;entryDx=0;entryDy=0;" edge="1" parent="1" source="9f2d0XfLrXAN-zf3y8o4-9" target="8t4h2dZMNEIqTEX9CSGe-43">
          <mxGeometry relative="1" as="geometry" />
        </mxCell>
        <mxCell id="8t4h2dZMNEIqTEX9CSGe-47" style="edgeStyle=orthogonalEdgeStyle;rounded=0;orthogonalLoop=1;jettySize=auto;html=1;entryX=0;entryY=0.5;entryDx=0;entryDy=0;" edge="1" parent="1" source="9f2d0XfLrXAN-zf3y8o4-9" target="8t4h2dZMNEIqTEX9CSGe-42">
          <mxGeometry relative="1" as="geometry" />
        </mxCell>
        <mxCell id="8t4h2dZMNEIqTEX9CSGe-48" style="edgeStyle=orthogonalEdgeStyle;rounded=0;orthogonalLoop=1;jettySize=auto;html=1;entryX=1;entryY=0.5;entryDx=0;entryDy=0;" edge="1" parent="1" source="9f2d0XfLrXAN-zf3y8o4-9" target="8t4h2dZMNEIqTEX9CSGe-41">
          <mxGeometry relative="1" as="geometry" />
        </mxCell>
        <mxCell id="8t4h2dZMNEIqTEX9CSGe-50" style="edgeStyle=orthogonalEdgeStyle;rounded=0;orthogonalLoop=1;jettySize=auto;html=1;entryX=0;entryY=0.5;entryDx=0;entryDy=0;" edge="1" parent="1" source="9f2d0XfLrXAN-zf3y8o4-9" target="8t4h2dZMNEIqTEX9CSGe-49">
          <mxGeometry relative="1" as="geometry" />
        </mxCell>
        <mxCell id="9f2d0XfLrXAN-zf3y8o4-9" value="Ingresos" style="whiteSpace=wrap;html=1;aspect=fixed;" parent="1" vertex="1">
          <mxGeometry x="-120" y="-320" width="80" height="80" as="geometry" />
        </mxCell>
        <mxCell id="9f2d0XfLrXAN-zf3y8o4-10" value="ID" style="ellipse;whiteSpace=wrap;html=1;" parent="1" vertex="1">
          <mxGeometry x="560" y="-40" width="80" height="40" as="geometry" />
        </mxCell>
        <mxCell id="9f2d0XfLrXAN-zf3y8o4-12" value="Nombre" style="ellipse;whiteSpace=wrap;html=1;" parent="1" vertex="1">
          <mxGeometry x="720" y="-40" width="80" height="40" as="geometry" />
        </mxCell>
        <mxCell id="9f2d0XfLrXAN-zf3y8o4-13" value="Email" style="ellipse;whiteSpace=wrap;html=1;" parent="1" vertex="1">
          <mxGeometry x="560" y="-80" width="80" height="40" as="geometry" />
        </mxCell>
        <mxCell id="9f2d0XfLrXAN-zf3y8o4-14" value="Apellido" style="ellipse;whiteSpace=wrap;html=1;" parent="1" vertex="1">
          <mxGeometry x="720" y="-80" width="80" height="40" as="geometry" />
        </mxCell>
        <mxCell id="9f2d0XfLrXAN-zf3y8o4-15" value="Mensaje" style="ellipse;whiteSpace=wrap;html=1;" parent="1" vertex="1">
          <mxGeometry x="560" y="-120" width="80" height="40" as="geometry" />
        </mxCell>
        <mxCell id="9f2d0XfLrXAN-zf3y8o4-16" value="Asunto" style="ellipse;whiteSpace=wrap;html=1;" parent="1" vertex="1">
          <mxGeometry x="720" y="-120" width="80" height="40" as="geometry" />
        </mxCell>
        <mxCell id="9f2d0XfLrXAN-zf3y8o4-23" value="ID" style="ellipse;whiteSpace=wrap;html=1;" parent="1" vertex="1">
          <mxGeometry x="40" y="120" width="80" height="40" as="geometry" />
        </mxCell>
        <mxCell id="9f2d0XfLrXAN-zf3y8o4-24" value="Nombre" style="ellipse;whiteSpace=wrap;html=1;" parent="1" vertex="1">
          <mxGeometry x="200" y="120" width="80" height="40" as="geometry" />
        </mxCell>
        <mxCell id="9f2d0XfLrXAN-zf3y8o4-25" value="Contra" style="ellipse;whiteSpace=wrap;html=1;" parent="1" vertex="1">
          <mxGeometry x="40" y="160" width="80" height="40" as="geometry" />
        </mxCell>
        <mxCell id="9f2d0XfLrXAN-zf3y8o4-26" value="Discord" style="ellipse;whiteSpace=wrap;html=1;" parent="1" vertex="1">
          <mxGeometry x="200" y="160" width="80" height="40" as="geometry" />
        </mxCell>
        <mxCell id="9f2d0XfLrXAN-zf3y8o4-32" value="ID_Usuario" style="ellipse;whiteSpace=wrap;html=1;" parent="1" vertex="1">
          <mxGeometry x="280" y="120" width="80" height="40" as="geometry" />
        </mxCell>
        <mxCell id="9f2d0XfLrXAN-zf3y8o4-33" value="Primera Sesion" style="ellipse;whiteSpace=wrap;html=1;" parent="1" vertex="1">
          <mxGeometry x="440" y="120" width="80" height="40" as="geometry" />
        </mxCell>
        <mxCell id="9f2d0XfLrXAN-zf3y8o4-34" value="Ultima Sesion" style="ellipse;whiteSpace=wrap;html=1;" parent="1" vertex="1">
          <mxGeometry x="280" y="160" width="80" height="40" as="geometry" />
        </mxCell>
        <mxCell id="9f2d0XfLrXAN-zf3y8o4-35" value="Dispositivo" style="ellipse;whiteSpace=wrap;html=1;" parent="1" vertex="1">
          <mxGeometry x="440" y="160" width="80" height="40" as="geometry" />
        </mxCell>
        <mxCell id="9f2d0XfLrXAN-zf3y8o4-36" value="Token" style="ellipse;whiteSpace=wrap;html=1;" parent="1" vertex="1">
          <mxGeometry x="280" y="200" width="80" height="40" as="geometry" />
        </mxCell>
        <mxCell id="9f2d0XfLrXAN-zf3y8o4-43" style="edgeStyle=orthogonalEdgeStyle;rounded=0;orthogonalLoop=1;jettySize=auto;html=1;entryX=0;entryY=0.5;entryDx=0;entryDy=0;" parent="1" source="9f2d0XfLrXAN-zf3y8o4-42" target="9f2d0XfLrXAN-zf3y8o4-3" edge="1">
          <mxGeometry relative="1" as="geometry" />
        </mxCell>
        <mxCell id="9f2d0XfLrXAN-zf3y8o4-42" value="Tienen" style="rhombus;whiteSpace=wrap;html=1;" parent="1" vertex="1">
          <mxGeometry x="260" y="55" width="50" height="50" as="geometry" />
        </mxCell>
        <mxCell id="9f2d0XfLrXAN-zf3y8o4-47" style="edgeStyle=orthogonalEdgeStyle;rounded=0;orthogonalLoop=1;jettySize=auto;html=1;entryX=1;entryY=0.5;entryDx=0;entryDy=0;" parent="1" source="9f2d0XfLrXAN-zf3y8o4-45" target="9f2d0XfLrXAN-zf3y8o4-2" edge="1">
          <mxGeometry relative="1" as="geometry" />
        </mxCell>
        <mxCell id="9f2d0XfLrXAN-zf3y8o4-45" value="Tienen" style="rhombus;whiteSpace=wrap;html=1;" parent="1" vertex="1">
          <mxGeometry x="10" y="55" width="50" height="50" as="geometry" />
        </mxCell>
        <mxCell id="9f2d0XfLrXAN-zf3y8o4-48" value="ID_Usuario" style="ellipse;whiteSpace=wrap;html=1;" parent="1" vertex="1">
          <mxGeometry x="-200" y="120" width="80" height="40" as="geometry" />
        </mxCell>
        <mxCell id="9f2d0XfLrXAN-zf3y8o4-49" value="ID_Cuenta" style="ellipse;whiteSpace=wrap;html=1;" parent="1" vertex="1">
          <mxGeometry x="-40" y="120" width="80" height="40" as="geometry" />
        </mxCell>
        <mxCell id="9f2d0XfLrXAN-zf3y8o4-50" value="Nombre_Cuenta" style="ellipse;whiteSpace=wrap;html=1;" parent="1" vertex="1">
          <mxGeometry x="-200" y="160" width="80" height="40" as="geometry" />
        </mxCell>
        <mxCell id="9f2d0XfLrXAN-zf3y8o4-56" style="edgeStyle=orthogonalEdgeStyle;rounded=0;orthogonalLoop=1;jettySize=auto;html=1;entryX=1;entryY=0.5;entryDx=0;entryDy=0;" parent="1" source="9f2d0XfLrXAN-zf3y8o4-52" target="9f2d0XfLrXAN-zf3y8o4-55" edge="1">
          <mxGeometry relative="1" as="geometry" />
        </mxCell>
        <mxCell id="9f2d0XfLrXAN-zf3y8o4-52" value="Tienen" style="rhombus;whiteSpace=wrap;html=1;" parent="1" vertex="1">
          <mxGeometry x="-230" y="55" width="50" height="50" as="geometry" />
        </mxCell>
        <mxCell id="9f2d0XfLrXAN-zf3y8o4-54" value="Fecha" style="ellipse;whiteSpace=wrap;html=1;" parent="1" vertex="1">
          <mxGeometry x="-280" y="120" width="80" height="40" as="geometry" />
        </mxCell>
        <mxCell id="9f2d0XfLrXAN-zf3y8o4-58" style="edgeStyle=orthogonalEdgeStyle;rounded=0;orthogonalLoop=1;jettySize=auto;html=1;entryX=1;entryY=0.5;entryDx=0;entryDy=0;" parent="1" source="9f2d0XfLrXAN-zf3y8o4-55" target="9f2d0XfLrXAN-zf3y8o4-57" edge="1">
          <mxGeometry relative="1" as="geometry" />
        </mxCell>
        <mxCell id="9f2d0XfLrXAN-zf3y8o4-63" style="edgeStyle=orthogonalEdgeStyle;rounded=0;orthogonalLoop=1;jettySize=auto;html=1;entryX=0;entryY=0.5;entryDx=0;entryDy=0;" parent="1" source="9f2d0XfLrXAN-zf3y8o4-55" target="9f2d0XfLrXAN-zf3y8o4-54" edge="1">
          <mxGeometry relative="1" as="geometry" />
        </mxCell>
        <mxCell id="9f2d0XfLrXAN-zf3y8o4-67" style="edgeStyle=orthogonalEdgeStyle;rounded=0;orthogonalLoop=1;jettySize=auto;html=1;entryX=0;entryY=0.5;entryDx=0;entryDy=0;" parent="1" source="9f2d0XfLrXAN-zf3y8o4-55" target="9f2d0XfLrXAN-zf3y8o4-65" edge="1">
          <mxGeometry relative="1" as="geometry" />
        </mxCell>
        <mxCell id="9f2d0XfLrXAN-zf3y8o4-68" style="edgeStyle=orthogonalEdgeStyle;rounded=0;orthogonalLoop=1;jettySize=auto;html=1;entryX=1;entryY=0.5;entryDx=0;entryDy=0;" parent="1" source="9f2d0XfLrXAN-zf3y8o4-55" target="9f2d0XfLrXAN-zf3y8o4-64" edge="1">
          <mxGeometry relative="1" as="geometry" />
        </mxCell>
        <mxCell id="9f2d0XfLrXAN-zf3y8o4-69" style="edgeStyle=orthogonalEdgeStyle;rounded=0;orthogonalLoop=1;jettySize=auto;html=1;entryX=1;entryY=0.5;entryDx=0;entryDy=0;" parent="1" source="9f2d0XfLrXAN-zf3y8o4-55" target="9f2d0XfLrXAN-zf3y8o4-66" edge="1">
          <mxGeometry relative="1" as="geometry" />
        </mxCell>
        <mxCell id="9f2d0XfLrXAN-zf3y8o4-55" value="Historial" style="whiteSpace=wrap;html=1;aspect=fixed;" parent="1" vertex="1">
          <mxGeometry x="-360" y="40" width="80" height="80" as="geometry" />
        </mxCell>
        <mxCell id="9f2d0XfLrXAN-zf3y8o4-57" value="ID_Usuario" style="ellipse;whiteSpace=wrap;html=1;" parent="1" vertex="1">
          <mxGeometry x="-430" y="120" width="70" height="40" as="geometry" />
        </mxCell>
        <mxCell id="9f2d0XfLrXAN-zf3y8o4-64" value="Division" style="ellipse;whiteSpace=wrap;html=1;" parent="1" vertex="1">
          <mxGeometry x="-435" y="160" width="80" height="40" as="geometry" />
        </mxCell>
        <mxCell id="9f2d0XfLrXAN-zf3y8o4-65" value="Rango" style="ellipse;whiteSpace=wrap;html=1;" parent="1" vertex="1">
          <mxGeometry x="-280" y="160" width="80" height="40" as="geometry" />
        </mxCell>
        <mxCell id="9f2d0XfLrXAN-zf3y8o4-66" value="LPs" style="ellipse;whiteSpace=wrap;html=1;" parent="1" vertex="1">
          <mxGeometry x="-435" y="200" width="80" height="40" as="geometry" />
        </mxCell>
        <mxCell id="5" style="edgeStyle=none;html=1;" parent="1" source="3" target="9f2d0XfLrXAN-zf3y8o4-5" edge="1">
          <mxGeometry relative="1" as="geometry" />
        </mxCell>
        <mxCell id="3" value="Tienen" style="rhombus;whiteSpace=wrap;html=1;" parent="1" vertex="1">
          <mxGeometry x="135" y="-50" width="50" height="50" as="geometry" />
        </mxCell>
        <mxCell id="8t4h2dZMNEIqTEX9CSGe-31" style="edgeStyle=orthogonalEdgeStyle;rounded=0;orthogonalLoop=1;jettySize=auto;html=1;entryX=1;entryY=0.5;entryDx=0;entryDy=0;" edge="1" parent="1" source="7" target="9f2d0XfLrXAN-zf3y8o4-9">
          <mxGeometry relative="1" as="geometry" />
        </mxCell>
        <mxCell id="7" value="Dan" style="rhombus;whiteSpace=wrap;html=1;" parent="1" vertex="1">
          <mxGeometry x="20" y="-305" width="50" height="50" as="geometry" />
        </mxCell>
        <mxCell id="14" style="edgeStyle=none;html=1;entryX=1;entryY=0.5;entryDx=0;entryDy=0;" parent="1" source="9" target="9f2d0XfLrXAN-zf3y8o4-8" edge="1">
          <mxGeometry relative="1" as="geometry" />
        </mxCell>
        <mxCell id="9" value="Hacen" style="rhombus;whiteSpace=wrap;html=1;" parent="1" vertex="1">
          <mxGeometry x="20" y="-145" width="50" height="50" as="geometry" />
        </mxCell>
        <mxCell id="8t4h2dZMNEIqTEX9CSGe-33" style="edgeStyle=orthogonalEdgeStyle;rounded=0;orthogonalLoop=1;jettySize=auto;html=1;entryX=0;entryY=0.5;entryDx=0;entryDy=0;" edge="1" parent="1" source="10" target="9f2d0XfLrXAN-zf3y8o4-7">
          <mxGeometry relative="1" as="geometry" />
        </mxCell>
        <mxCell id="10" value="Dejan" style="rhombus;whiteSpace=wrap;html=1;" parent="1" vertex="1">
          <mxGeometry x="280" y="-145" width="50" height="50" as="geometry" />
        </mxCell>
        <mxCell id="16" value="ID_Cuenta" style="ellipse;whiteSpace=wrap;html=1;" parent="1" vertex="1">
          <mxGeometry x="-200" y="-80" width="80" height="40" as="geometry" />
        </mxCell>
        <mxCell id="18" style="edgeStyle=orthogonalEdgeStyle;rounded=0;orthogonalLoop=1;jettySize=auto;html=1;entryX=1;entryY=0.5;entryDx=0;entryDy=0;exitX=0.5;exitY=1;exitDx=0;exitDy=0;" parent="1" source="9f2d0XfLrXAN-zf3y8o4-8" target="16" edge="1">
          <mxGeometry relative="1" as="geometry">
            <mxPoint x="-70" y="130" as="sourcePoint" />
            <mxPoint x="-109.99999999999363" y="150" as="targetPoint" />
          </mxGeometry>
        </mxCell>
        <mxCell id="19" value="ID_Coach" style="ellipse;whiteSpace=wrap;html=1;" parent="1" vertex="1">
          <mxGeometry x="-40" y="-80" width="80" height="40" as="geometry" />
        </mxCell>
        <mxCell id="20" style="edgeStyle=orthogonalEdgeStyle;rounded=0;orthogonalLoop=1;jettySize=auto;html=1;entryX=0;entryY=0.5;entryDx=0;entryDy=0;exitX=0.5;exitY=1;exitDx=0;exitDy=0;" parent="1" source="9f2d0XfLrXAN-zf3y8o4-8" target="19" edge="1">
          <mxGeometry relative="1" as="geometry">
            <mxPoint x="-29.999999999999773" y="-70" as="sourcePoint" />
            <mxPoint x="-70.00000000000614" y="-40" as="targetPoint" />
          </mxGeometry>
        </mxCell>
        <mxCell id="8t4h2dZMNEIqTEX9CSGe-20" value="Nota" style="ellipse;whiteSpace=wrap;html=1;" vertex="1" parent="1">
          <mxGeometry x="-200" y="-40" width="80" height="40" as="geometry" />
        </mxCell>
        <mxCell id="8t4h2dZMNEIqTEX9CSGe-21" value="ID_Sesion" style="ellipse;whiteSpace=wrap;html=1;" vertex="1" parent="1">
          <mxGeometry x="-40" y="-40" width="80" height="40" as="geometry" />
        </mxCell>
        <mxCell id="8t4h2dZMNEIqTEX9CSGe-24" value="ID_Sesion" style="ellipse;whiteSpace=wrap;html=1;" vertex="1" parent="1">
          <mxGeometry x="200" y="-280" width="80" height="40" as="geometry" />
        </mxCell>
        <mxCell id="8t4h2dZMNEIqTEX9CSGe-26" value="ID_Cuenta" style="ellipse;whiteSpace=wrap;html=1;" vertex="1" parent="1">
          <mxGeometry x="200" y="-200" width="80" height="40" as="geometry" />
        </mxCell>
        <mxCell id="8t4h2dZMNEIqTEX9CSGe-28" value="ID_Coach" style="ellipse;whiteSpace=wrap;html=1;" vertex="1" parent="1">
          <mxGeometry x="200" y="-240" width="80" height="40" as="geometry" />
        </mxCell>
        <mxCell id="8t4h2dZMNEIqTEX9CSGe-36" value="Fecha" style="ellipse;whiteSpace=wrap;html=1;" vertex="1" parent="1">
          <mxGeometry x="200" y="-320" width="80" height="40" as="geometry" />
        </mxCell>
        <mxCell id="8t4h2dZMNEIqTEX9CSGe-37" value="Hora" style="ellipse;whiteSpace=wrap;html=1;" vertex="1" parent="1">
          <mxGeometry x="200" y="-360" width="80" height="40" as="geometry" />
        </mxCell>
        <mxCell id="8t4h2dZMNEIqTEX9CSGe-41" value="ID_Cuenta" style="ellipse;whiteSpace=wrap;html=1;" vertex="1" parent="1">
          <mxGeometry x="-200" y="-400" width="80" height="40" as="geometry" />
        </mxCell>
        <mxCell id="8t4h2dZMNEIqTEX9CSGe-42" value="ID_Coach" style="ellipse;whiteSpace=wrap;html=1;" vertex="1" parent="1">
          <mxGeometry x="-40" y="-400" width="80" height="40" as="geometry" />
        </mxCell>
        <mxCell id="8t4h2dZMNEIqTEX9CSGe-43" value="Mes" style="ellipse;whiteSpace=wrap;html=1;" vertex="1" parent="1">
          <mxGeometry x="-200" y="-360" width="80" height="40" as="geometry" />
        </mxCell>
        <mxCell id="8t4h2dZMNEIqTEX9CSGe-44" value="ID_Sesion" style="ellipse;whiteSpace=wrap;html=1;" vertex="1" parent="1">
          <mxGeometry x="-40" y="-360" width="80" height="40" as="geometry" />
        </mxCell>
        <mxCell id="8t4h2dZMNEIqTEX9CSGe-49" value="Cantidad" style="ellipse;whiteSpace=wrap;html=1;" vertex="1" parent="1">
          <mxGeometry x="-40" y="-440" width="80" height="40" as="geometry" />
        </mxCell>
        <mxCell id="8t4h2dZMNEIqTEX9CSGe-51" value="ID_Cuenta" style="ellipse;whiteSpace=wrap;html=1;" vertex="1" parent="1">
          <mxGeometry x="320" y="-80" width="80" height="40" as="geometry" />
        </mxCell>
        <mxCell id="8t4h2dZMNEIqTEX9CSGe-52" value="ID_Coach" style="ellipse;whiteSpace=wrap;html=1;" vertex="1" parent="1">
          <mxGeometry x="480" y="-80" width="80" height="40" as="geometry" />
        </mxCell>
        <mxCell id="8t4h2dZMNEIqTEX9CSGe-53" value="Puntuacion" style="ellipse;whiteSpace=wrap;html=1;" vertex="1" parent="1">
          <mxGeometry x="320" y="-40" width="80" height="40" as="geometry" />
        </mxCell>
        <mxCell id="8t4h2dZMNEIqTEX9CSGe-54" value="ID_Sesion" style="ellipse;whiteSpace=wrap;html=1;" vertex="1" parent="1">
          <mxGeometry x="480" y="-40" width="80" height="40" as="geometry" />
        </mxCell>
      </root>
    </mxGraphModel>
  </diagram>
</mxfile>
